<svg width="54" height="56" viewBox="0 0 54 56" fill="none" xmlns="http://www.w3.org/2000/svg">
<path d="M17.6951 45.969H21.8301C21.8301 48.824 24.1442 51.1381 26.9993 51.1381C29.8543 51.1381 32.1684 48.824 32.1684 45.969H36.3034C36.3034 51.1078 32.1381 55.2731 26.9993 55.2731C21.8604 55.2731 17.6951 51.1078 17.6951 45.969ZM53.8793 40.7983V41.8353C53.8793 44.1256 52.0274 45.969 49.7421 45.969H4.25717C1.97185 45.969 0.119995 44.1192 0.119995 41.8353V40.7983C0.119995 37.1559 2.81627 34.1429 6.32336 33.6374V21.1566C6.32336 9.73445 15.5793 0.479996 27 0.479996C38.4207 0.479996 47.6766 9.73593 47.6766 21.1566V33.6374C51.188 34.1415 53.88 37.1522 53.88 40.7983H53.8793ZM49.7436 40.7983C49.7436 39.0834 48.3568 37.6981 46.6325 37.6981C44.9241 37.6981 43.5409 36.3042 43.5409 34.6044V21.1564C43.5409 12.0203 36.1363 4.61551 26.9993 4.61551C17.8622 4.61551 10.4576 12.0181 10.4576 21.1564V34.6044C10.4576 36.3121 9.06722 37.6981 7.36605 37.6981C5.64756 37.6981 4.25496 39.0878 4.25496 40.7983V41.8339H49.7417C49.7424 41.8339 49.7432 40.7983 49.7432 40.7983H49.7436Z" fill="black"/>
</svg>
