<svg width="54" height="46" viewBox="0 0 54 46" fill="none" xmlns="http://www.w3.org/2000/svg">
<path d="M0.119995 19.631V33.4533C0.119995 34.806 1.23764 35.9236 2.59035 35.9236H3.94306V38.1588C3.94306 42.2174 7.23677 45.5111 11.2953 45.5111H46.5273C50.5859 45.5111 53.8796 42.2174 53.8796 38.1588L53.88 7.63225C53.88 3.5737 50.5863 0.279999 46.5277 0.279999H11.2957C7.23718 0.279999 3.94347 3.5737 3.94347 7.63225V17.2197L2.53174 17.2193C1.17903 17.2193 0.12009 18.2782 0.12009 19.6309L0.119995 19.631ZM48.939 7.63215V8.04407C48.1742 7.7499 47.3508 7.63215 46.4686 7.63215H11.2954C10.472 7.63215 9.64852 7.7499 8.82507 8.04407V7.63215C8.82507 6.27944 9.94271 5.16179 11.2954 5.16179H46.5274C47.8801 5.16179 48.9387 6.27902 48.9387 7.63215H48.939ZM8.82507 35.9824H12.8836C16.9422 35.9824 20.2359 32.6887 20.2359 28.6302V24.513C20.2359 20.4545 16.9422 17.1608 12.8836 17.1608H8.82507V14.9256C8.82507 13.5729 9.94271 12.4552 11.2954 12.4552H46.5274C47.8801 12.4552 48.9978 13.5729 48.9978 14.9256V38.0999C48.9978 39.4526 47.8801 40.5703 46.5274 40.5703H11.2954C9.94271 40.5703 8.82507 39.4526 8.82507 38.0999V35.9824ZM4.94297 22.0426H12.8836C14.2363 22.0426 15.354 23.1602 15.354 24.5129V28.5715C15.354 29.9242 14.2363 31.0418 12.8836 31.0418H5.06082L4.94297 22.0426Z" fill="black"/>
</svg>
