<svg width="54" height="54" viewBox="0 0 54 54" fill="none" xmlns="http://www.w3.org/2000/svg">
<path fill-rule="evenodd" clip-rule="evenodd" d="M8.30933 0.12025C3.78633 0.12025 0.119995 3.77235 0.119995 8.27801V17.1688C0.119995 21.6741 3.78646 25.3261 8.30933 25.3261H23.2001C24.4335 25.3261 25.4336 24.3304 25.4336 23.1013V8.27776C25.4336 3.7721 21.7668 0.119995 17.2438 0.119995L8.30933 0.12025ZM4.58709 8.27801C4.58709 6.23005 6.25332 4.56985 8.30933 4.56985H17.2435C19.2995 4.56985 20.9663 6.23005 20.9663 8.27801V20.8765H8.30933C6.25332 20.8765 4.58709 19.2168 4.58709 17.1688V8.27801ZM8.30933 28.6737C3.78633 28.6737 0.119995 32.3258 0.119995 36.8314V45.7222C0.119995 50.2275 3.78646 53.88 8.30933 53.88H17.2435C21.7665 53.88 25.4334 50.2275 25.4334 45.7222V30.8987C25.4334 29.6701 24.4333 28.6739 23.1998 28.6739L8.30933 28.6737ZM4.58709 36.8314C4.58709 34.7835 6.25332 33.1233 8.30933 33.1233H20.9663V45.7222C20.9663 47.7697 19.2995 49.4304 17.2435 49.4304H8.30933C6.25332 49.4304 4.58709 47.7698 4.58709 45.7222V36.8314ZM28.2461 8.27776C28.2461 3.7721 31.913 0.119995 36.436 0.119995H45.3702C49.8932 0.119995 53.56 3.7721 53.56 8.27776V17.1686C53.56 21.6738 49.8932 25.3258 45.3702 25.3258H30.4794C29.246 25.3258 28.2459 24.3301 28.2459 23.101L28.2461 8.27776ZM36.436 4.56959C34.3799 4.56959 32.7132 6.2298 32.7132 8.27776V20.8762H45.3702C47.4257 20.8762 49.0929 19.2165 49.0929 17.1686V8.27776C49.0929 6.2298 47.4258 4.56959 45.3702 4.56959H36.436ZM30.4797 28.6737C29.2462 28.6737 28.2461 29.6699 28.2461 30.8985V45.722C28.2461 50.2273 31.913 53.8797 36.436 53.8797H45.3702C49.8932 53.8797 53.56 50.2273 53.56 45.722V36.8312C53.56 32.3255 49.8932 28.6734 45.3702 28.6734L30.4797 28.6737ZM32.7132 45.722V33.123H45.3702C47.4257 33.123 49.0929 34.7832 49.0929 36.8312V45.722C49.0929 47.7694 47.4258 49.4301 45.3702 49.4301H36.436C34.3799 49.4301 32.7132 47.7696 32.7132 45.722Z" fill="black"/>
</svg>
