<svg width="64" height="64" viewBox="0 0 64 64" fill="none" xmlns="http://www.w3.org/2000/svg">
<path d="M7.36019 16.3203H14.3993C15.0547 18.9008 16.8294 21.0535 19.2371 22.1891C21.6453 23.3246 24.4348 23.3246 26.843 22.1891C29.2508 21.0536 31.0254 18.9008 31.6809 16.3203H56.6398C57.4402 16.3203 58.1796 15.8933 58.58 15.2004C58.98 14.5074 58.98 13.6535 58.58 12.9606C58.1796 12.2672 57.4402 11.8403 56.6398 11.8403H31.6809C31.0254 9.25981 29.2508 7.10751 26.843 5.97192C24.4348 4.83602 21.6453 4.83602 19.2371 5.97192C16.8294 7.10741 15.0548 9.25981 14.3993 11.8403H7.36019C6.5598 11.8403 5.82039 12.2672 5.41999 12.9606C5.02 13.6536 5.02 14.5075 5.41999 15.2004C5.82038 15.8934 6.55979 16.3203 7.36019 16.3203ZM23.0401 9.6004C24.2284 9.6004 25.3678 10.0723 26.2081 10.9125C27.0484 11.7527 27.5202 12.8922 27.5202 14.0805C27.5202 15.2688 27.0483 16.4082 26.2081 17.2481C25.3679 18.0883 24.2284 18.5606 23.0401 18.5606C21.8522 18.5606 20.7128 18.0883 19.8725 17.2481C19.0323 16.4082 18.5604 15.2688 18.5604 14.0805C18.5604 12.8922 19.0323 11.7528 19.8725 10.9125C20.7128 10.0722 21.8522 9.6004 23.0401 9.6004Z" fill="black"/>
<path d="M7.36019 34.2402H32.3191C32.9746 36.8207 34.7492 38.9734 37.157 40.109C39.5652 41.2445 42.3547 41.2445 44.7629 40.109C47.1706 38.9735 48.9452 36.8207 49.6007 34.2402H56.6398C57.4402 34.2402 58.1796 33.8133 58.58 33.1203C58.98 32.4273 58.98 31.5734 58.58 30.8805C58.1796 30.1875 57.4402 29.7606 56.6398 29.7606H49.6007C48.9453 27.1801 47.1706 25.0274 44.7629 23.8918C42.3547 22.7563 39.5652 22.7563 37.157 23.8918C34.7492 25.0273 32.9746 27.1801 32.3191 29.7606H7.36019C6.5598 29.7606 5.82039 30.1876 5.41999 30.8805C5.02 31.5735 5.02 32.4274 5.41999 33.1203C5.82038 33.8133 6.55979 34.2402 7.36019 34.2402ZM40.9601 27.5203C42.148 27.5203 43.2874 27.9926 44.1277 28.8324C44.9679 29.6727 45.4398 30.8121 45.4398 32.0004C45.4398 33.1887 44.9679 34.3281 44.1277 35.1684C43.2874 36.0082 42.148 36.4805 40.9601 36.4805C39.7718 36.4805 38.6324 36.0082 37.7921 35.1684C36.9519 34.3282 36.48 33.1887 36.48 32.0004C36.48 30.8121 36.9519 29.6727 37.7921 28.8324C38.6323 27.9926 39.7718 27.5203 40.9601 27.5203Z" fill="black"/>
<path d="M7.36019 52.1602H14.3993C15.0547 54.7407 16.8294 56.8929 19.2371 58.0285C21.6453 59.1644 24.4348 59.1644 26.843 58.0285C29.2508 56.893 31.0254 54.7407 31.6809 52.1602H56.6398C57.4402 52.1602 58.1796 51.7332 58.58 51.0399C58.98 50.3469 58.98 49.493 58.58 48.8001C58.1796 48.1071 57.4402 47.6802 56.6398 47.6802H31.6809C31.0254 45.0997 29.2508 42.947 26.843 41.8114C24.4348 40.6759 21.6453 40.6759 19.2371 41.8114C16.8294 42.9469 15.0548 45.0997 14.3993 47.6802H7.36019C6.5598 47.6802 5.82039 48.1071 5.41999 48.8001C5.02 49.493 5.02 50.347 5.41999 51.0399C5.82038 51.7332 6.55979 52.1602 7.36019 52.1602ZM23.0401 45.4399C24.2284 45.4399 25.3678 45.9122 26.2081 46.7524C27.0483 47.5922 27.5202 48.7317 27.5202 49.92C27.5202 51.1083 27.0483 52.2477 26.2081 53.088C25.3679 53.9283 24.2284 54.4001 23.0401 54.4001C21.8522 54.4001 20.7128 53.9282 19.8725 53.088C19.0322 52.2477 18.5604 51.1083 18.5604 49.92C18.5604 48.7317 19.0323 47.5923 19.8725 46.7524C20.7128 45.9122 21.8522 45.4399 23.0401 45.4399Z" fill="black"/>
</svg>
