<svg width="64" height="64" viewBox="0 0 64 64" fill="none" xmlns="http://www.w3.org/2000/svg">
<path d="M22.6951 49.969H26.8301C26.8301 52.824 29.1442 55.1381 31.9993 55.1381C34.8543 55.1381 37.1684 52.824 37.1684 49.969H41.3034C41.3034 55.1078 37.1381 59.2731 31.9993 59.2731C26.8604 59.2731 22.6951 55.1078 22.6951 49.969ZM58.8793 44.7983V45.8353C58.8793 48.1256 57.0274 49.969 54.7421 49.969H9.25717C6.97185 49.969 5.12 48.1192 5.12 45.8353V44.7983C5.12 41.1559 7.81627 38.1429 11.3234 37.6374V25.1566C11.3234 13.7345 20.5793 4.48 32 4.48C43.4207 4.48 52.6766 13.7359 52.6766 25.1566V37.6374C56.188 38.1415 58.88 41.1522 58.88 44.7983H58.8793ZM54.7436 44.7983C54.7436 43.0834 53.3568 41.6981 51.6325 41.6981C49.9241 41.6981 48.5409 40.3042 48.5409 38.6044V25.1564C48.5409 16.0203 41.1363 8.61551 31.9993 8.61551C22.8622 8.61551 15.4576 16.0181 15.4576 25.1564V38.6044C15.4576 40.3121 14.0672 41.6981 12.366 41.6981C10.6476 41.6981 9.25496 43.0878 9.25496 44.7983V45.8339H54.7417C54.7424 45.8339 54.7432 44.7983 54.7432 44.7983H54.7436Z" fill="white"/>
</svg>
