<svg width="64" height="64" viewBox="0 0 64 64" fill="none" xmlns="http://www.w3.org/2000/svg">
<path fill-rule="evenodd" clip-rule="evenodd" d="M13.3093 5.12025C8.78633 5.12025 5.12 8.77235 5.12 13.278V22.1688C5.12 26.6741 8.78646 30.3261 13.3093 30.3261H28.2001C29.4335 30.3261 30.4336 29.3304 30.4336 28.1013V13.2778C30.4336 8.7721 26.7668 5.12 22.2438 5.12L13.3093 5.12025ZM9.58709 13.278C9.58709 11.2301 11.2533 9.56985 13.3093 9.56985H22.2435C24.2995 9.56985 25.9663 11.2301 25.9663 13.278V25.8765H13.3093C11.2533 25.8765 9.58709 24.2168 9.58709 22.1688V13.278ZM13.3093 33.6737C8.78633 33.6737 5.12 37.3258 5.12 41.8314V50.7222C5.12 55.2275 8.78646 58.88 13.3093 58.88H22.2435C26.7665 58.88 30.4334 55.2275 30.4334 50.7222V35.8987C30.4334 34.6701 29.4333 33.6739 28.1998 33.6739L13.3093 33.6737ZM9.58709 41.8314C9.58709 39.7835 11.2533 38.1233 13.3093 38.1233H25.9663V50.7222C25.9663 52.7697 24.2995 54.4304 22.2435 54.4304H13.3093C11.2533 54.4304 9.58709 52.7698 9.58709 50.7222V41.8314ZM33.2461 13.2778C33.2461 8.7721 36.913 5.12 41.436 5.12H50.3702C54.8932 5.12 58.56 8.7721 58.56 13.2778V22.1686C58.56 26.6738 54.8932 30.3258 50.3702 30.3258H35.4794C34.246 30.3258 33.2459 29.3301 33.2459 28.101L33.2461 13.2778ZM41.436 9.56959C39.3799 9.56959 37.7132 11.2298 37.7132 13.2778V25.8762H50.3702C52.4257 25.8762 54.0929 24.2165 54.0929 22.1686V13.2778C54.0929 11.2298 52.4258 9.56959 50.3702 9.56959H41.436ZM35.4797 33.6737C34.2462 33.6737 33.2461 34.6699 33.2461 35.8985V50.722C33.2461 55.2273 36.913 58.8797 41.436 58.8797H50.3702C54.8932 58.8797 58.56 55.2273 58.56 50.722V41.8312C58.56 37.3255 54.8932 33.6734 50.3702 33.6734L35.4797 33.6737ZM37.7132 50.722V38.123H50.3702C52.4257 38.123 54.0929 39.7832 54.0929 41.8312V50.722C54.0929 52.7694 52.4258 54.4301 50.3702 54.4301H41.436C39.3799 54.4301 37.7132 52.7696 37.7132 50.722Z" fill="black"/>
</svg>
