<svg width="64" height="64" viewBox="0 0 64 64" fill="none" xmlns="http://www.w3.org/2000/svg">
<path d="M50.816 15.7467H45.4401C43.9586 15.7467 42.7521 16.9531 42.7521 18.4346C42.7521 19.9162 43.9586 21.1226 45.4401 21.1226H50.816C52.2975 21.1226 53.504 22.329 53.504 23.8106V48.0023C53.504 49.4838 52.2975 50.6903 50.816 50.6903H13.184C11.7025 50.6903 10.496 49.4838 10.496 48.0023V23.8106C10.496 22.329 11.7025 21.1226 13.184 21.1226H22.8248L19.3537 24.5937C18.306 25.6414 18.306 27.3452 19.3537 28.3929C19.8828 28.922 21.8723 29.6734 23.1529 28.3929L31.2169 20.3289C32.2645 19.2813 32.2645 17.5774 31.2169 16.5297L23.1529 8.46574C22.1052 7.41808 20.4013 7.41808 19.3537 8.46574C18.306 9.51341 18.306 11.2173 19.3537 12.2649L22.8248 15.736H13.184C8.72868 15.7466 5.12 19.3553 5.12 23.8106V48.0023C5.12 52.4576 8.72868 56.0663 13.184 56.0663H50.816C55.2713 56.0663 58.88 52.4576 58.88 48.0023V23.8106C58.88 19.3553 55.2713 15.7466 50.816 15.7466V15.7467Z" fill="black"/>
</svg>
