<svg width="64" height="64" viewBox="0 0 64 64" fill="none" xmlns="http://www.w3.org/2000/svg">
<path d="M5.12 28.631V42.4533C5.12 43.806 6.23764 44.9236 7.59035 44.9236H8.94306V47.1588C8.94306 51.2174 12.2368 54.5111 16.2953 54.5111H51.5273C55.5859 54.5111 58.8796 51.2174 58.8796 47.1588L58.88 16.6323C58.88 12.5737 55.5863 9.28 51.5277 9.28H16.2957C12.2372 9.28 8.94347 12.5737 8.94347 16.6323V26.2197L7.53174 26.2193C6.17903 26.2193 5.12009 27.2782 5.12009 28.6309L5.12 28.631ZM53.939 16.6322V17.0441C53.1742 16.7499 52.3508 16.6322 51.4686 16.6322H16.2954C15.472 16.6322 14.6485 16.7499 13.8251 17.0441V16.6322C13.8251 15.2794 14.9427 14.1618 16.2954 14.1618H51.5274C52.8801 14.1618 53.9387 15.279 53.9387 16.6322H53.939ZM13.8251 44.9824H17.8836C21.9422 44.9824 25.2359 41.6887 25.2359 37.6302V33.513C25.2359 29.4545 21.9422 26.1608 17.8836 26.1608H13.8251V23.9256C13.8251 22.5729 14.9427 21.4552 16.2954 21.4552H51.5274C52.8801 21.4552 53.9978 22.5729 53.9978 23.9256V47.0999C53.9978 48.4526 52.8801 49.5703 51.5274 49.5703H16.2954C14.9427 49.5703 13.8251 48.4526 13.8251 47.0999V44.9824ZM9.94297 31.0426H17.8836C19.2363 31.0426 20.354 32.1602 20.354 33.5129V37.5715C20.354 38.9242 19.2363 40.0418 17.8836 40.0418H10.0608L9.94297 31.0426Z" fill="black"/>
</svg>
